<?xml version="1.0" encoding="UTF-8" standalone="no"?>
<!DOCTYPE svg PUBLIC "-//W3C//DTD SVG 1.0//EN" "http://www.w3.org/TR/2001/PR-SVG-20010719/DTD/svg10.dtd">
<svg width="31cm" height="17cm" viewBox="277 72 605 329" xmlns="http://www.w3.org/2000/svg" xmlns:xlink="http://www.w3.org/1999/xlink">
  <g>
    <ellipse style="fill: #ffffff" cx="420" cy="100" rx="20" ry="20"/>
    <ellipse style="fill: none; fill-opacity:0; stroke-width: 4; stroke: #65a303" cx="420" cy="100" rx="20" ry="20"/>
  </g>
  <g>
    <ellipse style="fill: #ffffff" cx="300" cy="200" rx="20" ry="20"/>
    <ellipse style="fill: none; fill-opacity:0; stroke-width: 4; stroke: #3669bd" cx="300" cy="200" rx="20" ry="20"/>
  </g>
  <g>
    <ellipse style="fill: #ffffff" cx="420" cy="300" rx="20" ry="20"/>
    <ellipse style="fill: none; fill-opacity:0; stroke-width: 2; stroke: #3669bd" cx="420" cy="300" rx="20" ry="20"/>
  </g>
  <g>
    <ellipse style="fill: #ffffff" cx="580" cy="300" rx="20" ry="20"/>
    <ellipse style="fill: none; fill-opacity:0; stroke-width: 2; stroke: #3669bd" cx="580" cy="300" rx="20" ry="20"/>
  </g>
  <g>
    <ellipse style="fill: #ffffff" cx="500" cy="380" rx="20" ry="20"/>
    <ellipse style="fill: none; fill-opacity:0; stroke-width: 2; stroke: #3669bd" cx="500" cy="380" rx="20" ry="20"/>
  </g>
  <g>
    <ellipse style="fill: #ffffff" cx="580" cy="100" rx="20" ry="20"/>
    <ellipse style="fill: none; fill-opacity:0; stroke-width: 2; stroke: #3669bd" cx="580" cy="100" rx="20" ry="20"/>
  </g>
  <g>
    <ellipse style="fill: #ffffff" cx="740" cy="100" rx="20" ry="20"/>
    <ellipse style="fill: none; fill-opacity:0; stroke-width: 4; stroke: #65a303" cx="740" cy="100" rx="20" ry="20"/>
  </g>
  <g>
    <ellipse style="fill: #ffffff" cx="740" cy="300" rx="20" ry="20"/>
    <ellipse style="fill: none; fill-opacity:0; stroke-width: 2; stroke: #3669bd" cx="740" cy="300" rx="20" ry="20"/>
  </g>
  <g>
    <ellipse style="fill: #ffffff" cx="860" cy="200" rx="20" ry="20"/>
    <ellipse style="fill: none; fill-opacity:0; stroke-width: 4; stroke: #3669bd" cx="860" cy="200" rx="20" ry="20"/>
  </g>
  <g>
    <ellipse style="fill: #ffffff" cx="660" cy="200" rx="20" ry="20"/>
    <ellipse style="fill: none; fill-opacity:0; stroke-width: 2; stroke: #3669bd" cx="660" cy="200" rx="20" ry="20"/>
  </g>
  <line style="fill: none; fill-opacity:0; stroke-width: 2; stroke: #000000" x1="316.89" y1="185.925" x2="403.11" y2="114.075"/>
  <text font-size="15.8044" style="fill: #000000;text-anchor:middle;font-family:sans-serif;font-style:normal;font-weight:700" x="300" y="205.45">
    <tspan x="300" y="205.45">1</tspan>
  </text>
  <text font-size="15.8044" style="fill: #000000;text-anchor:middle;font-family:sans-serif;font-style:normal;font-weight:700" x="420" y="105.45">
    <tspan x="420" y="105.45">2</tspan>
  </text>
  <text font-size="15.8044" style="fill: #000000;text-anchor:middle;font-family:sans-serif;font-style:normal;font-weight:700" x="420" y="305.45">
    <tspan x="420" y="305.45">3</tspan>
  </text>
  <text font-size="15.8044" style="fill: #000000;text-anchor:middle;font-family:sans-serif;font-style:normal;font-weight:700" x="500" y="385.45">
    <tspan x="500" y="385.45">4</tspan>
  </text>
  <text font-size="15.8044" style="fill: #000000;text-anchor:middle;font-family:sans-serif;font-style:normal;font-weight:700" x="580" y="105.45">
    <tspan x="580" y="105.45">5</tspan>
  </text>
  <text font-size="15.8044" style="fill: #000000;text-anchor:middle;font-family:sans-serif;font-style:normal;font-weight:700" x="580" y="305.45">
    <tspan x="580" y="305.45">6</tspan>
  </text>
  <text font-size="15.8044" style="fill: #000000;text-anchor:middle;font-family:sans-serif;font-style:normal;font-weight:700" x="660" y="205.45">
    <tspan x="660" y="205.45">7</tspan>
  </text>
  <text font-size="15.8044" style="fill: #000000;text-anchor:middle;font-family:sans-serif;font-style:normal;font-weight:700" x="740" y="105.45">
    <tspan x="740" y="105.45">8</tspan>
  </text>
  <text font-size="15.8044" style="fill: #000000;text-anchor:middle;font-family:sans-serif;font-style:normal;font-weight:700" x="740" y="305.45">
    <tspan x="740" y="305.45">9</tspan>
  </text>
  <text font-size="15.8044" style="fill: #000000;text-anchor:middle;font-family:sans-serif;font-style:normal;font-weight:700" x="860" y="205.45">
    <tspan x="860" y="205.45">10</tspan>
  </text>
  <line style="fill: none; fill-opacity:0; stroke-width: 2; stroke: #000000" x1="442.002" y1="100" x2="559.023" y2="100"/>
  <line style="fill: none; fill-opacity:0; stroke-width: 2; stroke: #000000" x1="843.11" y1="185.925" x2="756.89" y2="114.075"/>
  <line style="fill: none; fill-opacity:0; stroke-width: 2; stroke: #000000" x1="600.977" y1="100" x2="717.998" y2="100"/>
  <line style="fill: none; fill-opacity:0; stroke-width: 2; stroke: #000000" x1="420" y1="122.003" x2="420" y2="278.998"/>
  <line style="fill: none; fill-opacity:0; stroke-width: 2; stroke: #000000" x1="316.89" y1="214.075" x2="403.872" y2="286.56"/>
  <line style="fill: none; fill-opacity:0; stroke-width: 2; stroke: #000000" x1="440.977" y1="300" x2="559.023" y2="300"/>
  <line style="fill: none; fill-opacity:0; stroke-width: 2; stroke: #000000" x1="592.812" y1="116.016" x2="647.188" y2="183.984"/>
  <line style="fill: none; fill-opacity:0; stroke-width: 2; stroke: #000000" x1="756.128" y1="286.56" x2="843.11" y2="214.075"/>
  <line style="fill: none; fill-opacity:0; stroke-width: 2; stroke: #000000" x1="672.812" y1="216.016" x2="727.188" y2="283.984"/>
  <line style="fill: none; fill-opacity:0; stroke-width: 2; stroke: #000000" x1="433.125" y1="116.406" x2="567.188" y2="283.984"/>
  <line style="fill: none; fill-opacity:0; stroke-width: 2; stroke: #000000" x1="600.977" y1="300" x2="719.023" y2="300"/>
  <line style="fill: none; fill-opacity:0; stroke-width: 2; stroke: #000000" x1="592.812" y1="283.984" x2="647.188" y2="216.016"/>
  <line style="fill: none; fill-opacity:0; stroke-width: 2; stroke: #000000" x1="681.002" y1="200" x2="837.997" y2="200"/>
  <line style="fill: none; fill-opacity:0; stroke-width: 2; stroke: #000000" x1="514.854" y1="365.146" x2="565.146" y2="314.854"/>
  <line style="fill: none; fill-opacity:0; stroke-width: 2; stroke: #000000" x1="434.854" y1="314.854" x2="485.146" y2="365.146"/>
  <text font-size="12.8" style="fill: #ffa500;text-anchor:end;font-family:sans-serif;font-style:normal;font-weight:700" x="360" y="140">
    <tspan x="360" y="140">(30, 5)</tspan>
  </text>
  <text font-size="12.8" style="fill: #ffa500;text-anchor:end;font-family:sans-serif;font-style:normal;font-weight:700" x="360" y="280">
    <tspan x="360" y="280">(90, 5)</tspan>
  </text>
  <text font-size="12.8" style="fill: #ffa500;text-anchor:end;font-family:sans-serif;font-style:normal;font-weight:700" x="400" y="200">
    <tspan x="400" y="200">(10, 5)</tspan>
  </text>
  <text font-size="12.8" style="fill: #ffa500;text-anchor:start;font-family:sans-serif;font-style:normal;font-weight:700" x="460" y="284.45">
    <tspan x="460" y="284.45">(30, 5)</tspan>
  </text>
  <text font-size="12.8" style="fill: #ffa500;text-anchor:start;font-family:sans-serif;font-style:normal;font-weight:700" x="480" y="84.45">
    <tspan x="480" y="84.45">(40, 5)</tspan>
  </text>
  <text font-size="12.8" style="fill: #ffa500;text-anchor:end;font-family:sans-serif;font-style:normal;font-weight:700" x="460" y="360">
    <tspan x="460" y="360">(10, 5)</tspan>
  </text>
  <text font-size="12.8" style="fill: #ffa500;text-anchor:start;font-family:sans-serif;font-style:normal;font-weight:700" x="540" y="360">
    <tspan x="540" y="360">(10, 5)</tspan>
  </text>
  <text font-size="12.8" style="fill: #ffa500;text-anchor:start;font-family:sans-serif;font-style:normal;font-weight:700" x="480" y="160">
    <tspan x="480" y="160">(35, 5)</tspan>
  </text>
  <text font-size="12.8" style="fill: #ffa500;text-anchor:start;font-family:sans-serif;font-style:normal;font-weight:700" x="640" y="84.45">
    <tspan x="640" y="84.45">(30, 5)</tspan>
  </text>
  <text font-size="12.8" style="fill: #ffa500;text-anchor:start;font-family:sans-serif;font-style:normal;font-weight:700" x="640" y="160">
    <tspan x="640" y="160">(10, 5)</tspan>
  </text>
  <text font-size="12.8" style="fill: #ffa500;text-anchor:end;font-family:sans-serif;font-style:normal;font-weight:700" x="620" y="240">
    <tspan x="620" y="240">(15, 5)</tspan>
  </text>
  <text font-size="12.8" style="fill: #ffa500;text-anchor:start;font-family:sans-serif;font-style:normal;font-weight:700" x="640" y="324.45">
    <tspan x="640" y="324.45">(50, 5)</tspan>
  </text>
  <text font-size="12.8" style="fill: #ffa500;text-anchor:start;font-family:sans-serif;font-style:normal;font-weight:700" x="700" y="240">
    <tspan x="700" y="240">(45, 5)</tspan>
  </text>
  <text font-size="12.8" style="fill: #ffa500;text-anchor:start;font-family:sans-serif;font-style:normal;font-weight:700" x="720" y="184.45">
    <tspan x="720" y="184.45">(25, 5)</tspan>
  </text>
  <text font-size="12.8" style="fill: #ffa500;text-anchor:start;font-family:sans-serif;font-style:normal;font-weight:700" x="800" y="280">
    <tspan x="800" y="280">(90, 5)</tspan>
  </text>
  <text font-size="12.8" style="fill: #ffa500;text-anchor:start;font-family:sans-serif;font-style:normal;font-weight:700" x="800" y="140">
    <tspan x="800" y="140">(35, 5)</tspan>
  </text>
</svg>
